<mxfile host="app.diagrams.net" modified="2020-10-17T12:31:53.753Z" agent="5.0 (Windows NT 10.0; Win64; x64) AppleWebKit/537.36 (KHTML, like Gecko) Chrome/86.0.4240.75 Safari/537.36" etag="oQqibiBmmfVM8asBCJS4" version="13.8.0" type="github">
  <diagram id="skWGfzCK0mDwk6yxOeKa" name="Page-1">
    <mxGraphModel dx="1422" dy="794" grid="1" gridSize="10" guides="1" tooltips="1" connect="1" arrows="1" fold="1" page="1" pageScale="1" pageWidth="827" pageHeight="1169" math="0" shadow="0">
      <root>
        <mxCell id="0" />
        <mxCell id="1" parent="0" />
        <mxCell id="C_nUnjKQVRx1pcF6V9sd-9" style="edgeStyle=orthogonalEdgeStyle;rounded=0;orthogonalLoop=1;jettySize=auto;html=1;exitX=1;exitY=0.5;exitDx=0;exitDy=0;" parent="1" source="C_nUnjKQVRx1pcF6V9sd-6" edge="1">
          <mxGeometry relative="1" as="geometry">
            <mxPoint x="800" y="620" as="targetPoint" />
          </mxGeometry>
        </mxCell>
        <mxCell id="C_nUnjKQVRx1pcF6V9sd-6" value="" style="rounded=0;whiteSpace=wrap;html=1;strokeWidth=4;fillColor=#b0e3e6;strokeColor=#0e8088;" parent="1" vertex="1">
          <mxGeometry x="80" y="590" width="710" height="60" as="geometry" />
        </mxCell>
        <mxCell id="C_nUnjKQVRx1pcF6V9sd-1" value="" style="rounded=1;whiteSpace=wrap;html=1;fillColor=#dae8fc;gradientColor=#7ea6e0;strokeColor=#6c8ebf;" parent="1" vertex="1">
          <mxGeometry x="70" y="100" width="730" height="70" as="geometry" />
        </mxCell>
        <mxCell id="C_nUnjKQVRx1pcF6V9sd-2" value="" style="whiteSpace=wrap;html=1;aspect=fixed;strokeWidth=6;" parent="1" vertex="1">
          <mxGeometry x="240" y="180" width="400" height="400" as="geometry" />
        </mxCell>
        <mxCell id="C_nUnjKQVRx1pcF6V9sd-3" value="" style="rounded=1;whiteSpace=wrap;html=1;" parent="1" vertex="1">
          <mxGeometry x="80" y="180" width="140" height="400" as="geometry" />
        </mxCell>
        <mxCell id="C_nUnjKQVRx1pcF6V9sd-5" value="Text" style="text;html=1;strokeColor=none;fillColor=none;align=center;verticalAlign=middle;whiteSpace=wrap;rounded=0;" parent="1" vertex="1">
          <mxGeometry x="280" y="190" width="320" height="40" as="geometry" />
        </mxCell>
        <mxCell id="C_nUnjKQVRx1pcF6V9sd-7" value="" style="shape=note;whiteSpace=wrap;html=1;backgroundOutline=1;darkOpacity=0.05;strokeWidth=4;fillColor=none;strokeColor=#00FF00;" parent="1" vertex="1">
          <mxGeometry x="660" y="180" width="130" height="100" as="geometry" />
        </mxCell>
        <mxCell id="C_nUnjKQVRx1pcF6V9sd-8" value="" style="shape=process;whiteSpace=wrap;html=1;backgroundOutline=1;strokeWidth=4;strokeColor=#0000FF;" parent="1" vertex="1">
          <mxGeometry x="660" y="300" width="130" height="270" as="geometry" />
        </mxCell>
      </root>
    </mxGraphModel>
  </diagram>
</mxfile>
